<svg width="20" height="20" viewBox="0 0 20 20" fill="none" xmlns="http://www.w3.org/2000/svg">
<g clip-path="url(#clip0_1_9)">
<path d="M10 0.399994C4.698 0.399994 0.400002 4.69799 0.400002 9.99999C0.400002 15.302 4.698 19.6 10 19.6C15.302 19.6 19.6 15.302 19.6 9.99999C19.6 4.69799 15.302 0.399994 10 0.399994ZM7.65 13.979H5.706V7.72299H7.65V13.979ZM6.666 6.95499C6.052 6.95499 5.655 6.51999 5.655 5.98199C5.655 5.43299 6.064 5.01099 6.691 5.01099C7.318 5.01099 7.702 5.43299 7.714 5.98199C7.714 6.51999 7.318 6.95499 6.666 6.95499ZM14.75 13.979H12.806V10.512C12.806 9.70499 12.524 9.15699 11.821 9.15699C11.284 9.15699 10.965 9.52799 10.824 9.88499C10.772 10.012 10.759 10.192 10.759 10.371V13.978H8.814V9.71799C8.814 8.93699 8.789 8.28399 8.763 7.72199H10.452L10.541 8.59099H10.58C10.836 8.18299 11.463 7.58099 12.512 7.58099C13.791 7.58099 14.75 8.43799 14.75 10.28V13.979Z" fill="white"/>
</g>
<defs>
<clipPath id="clip0_1_9">
<rect width="20" height="20" fill="white"/>
</clipPath>
</defs>
</svg>
