<svg width="16" height="16" viewBox="0 0 16 16" fill="white" xmlns="http://www.w3.org/2000/svg">
<g clip-path="url(#clip0_0_249)">
<path d="M8 0C12.4185 0 16 3.5815 16 8C16 12.4185 12.4185 16 8 16C3.5815 16 0 12.4185 0 8C0 3.5815 3.5815 0 8 0ZM5.435 3.831L3.3135 5.017C3.21815 5.06632 3.13835 5.14114 3.083 5.23312C3.02765 5.32511 2.99892 5.43065 3 5.538V7.928C3 8.144 3.1105 8.3415 3.3135 8.4495L5.4355 9.6355C5.62 9.743 5.86 9.743 6.0625 9.6355L7.502 8.8265L8.4795 8.2695L9.919 7.461C10.1035 7.353 10.343 7.353 10.546 7.461L11.6715 8.09C11.8565 8.1975 11.985 8.395 11.985 8.611V9.887C11.985 10.1025 11.875 10.3 11.6715 10.408L10.5465 11.055C10.3615 11.163 10.1215 11.163 9.919 11.055L8.7935 10.426C8.6085 10.318 8.4795 10.1205 8.4795 9.905V9.078L7.502 9.6355V10.462C7.502 10.6775 7.6125 10.8755 7.8155 10.983L9.9375 12.169C10.122 12.277 10.3615 12.277 10.5645 12.169L12.6865 10.983C12.871 10.8755 13 10.678 13 10.462V8.072C13.0011 7.96465 12.9723 7.85911 12.917 7.76713C12.8616 7.67514 12.7819 7.60032 12.6865 7.551L10.5465 6.3465C10.3615 6.239 10.1215 6.239 9.919 6.3465L8.4795 7.1735L7.502 7.7125L6.0625 8.539C5.878 8.647 5.6385 8.647 5.4355 8.539L4.2915 7.892C4.107 7.7845 3.978 7.587 3.978 7.371V6.095C3.978 5.8795 4.0885 5.682 4.2915 5.574L5.4165 4.945C5.6015 4.837 5.8415 4.837 6.0445 4.945L7.1695 5.574C7.3545 5.682 7.4835 5.8795 7.4835 6.095V6.922L8.461 6.3645V5.538C8.46208 5.43065 8.43335 5.32511 8.378 5.23312C8.32265 5.14114 8.24285 5.06632 8.1475 5.017L6.0625 3.831C5.878 3.723 5.6385 3.723 5.4355 3.831H5.435Z" fill="white"/>
</g>
<defs>
<clipPath id="clip0_0_249">
<rect width="64" height="64" fill="white"/>
</clipPath>
</defs>
</svg>
