<svg width="35" height="33" viewBox="0 0 35 33" fill="none" xmlns="http://www.w3.org/2000/svg">
<g clip-path="url(#clip0_1_64)">
<path d="M34.1887 0L19.1706 11.1759L21.9633 4.58961L34.1887 0Z" fill="#E17726"/>
<path d="M0.846426 0.0132141L13.0391 4.59045L15.6909 11.2631L0.846426 0.0132141ZM28.1449 23.768L34.7828 23.895L32.4629 31.8208L24.3633 29.5781L28.1449 23.768ZM6.85494 23.768L10.6225 29.5781L2.53654 31.821L0.230782 23.895L6.85494 23.768Z" fill="#E27625"/>
<path d="M15.3304 9.5634L15.6017 18.3748L7.48453 18.0034L9.79343 14.5002L9.82269 14.4665L15.3304 9.5634ZM19.5855 9.46509L25.1773 14.4668L25.2063 14.5003L27.5152 18.0036L19.3998 18.3748L19.5855 9.46509ZM10.8603 23.7936L15.2924 27.2667L10.1438 29.7666L10.8603 23.7936ZM24.1406 23.793L24.8421 29.7667L19.7079 27.2664L24.1406 23.793Z" fill="#E27625"/>
<path d="M19.8212 26.9393L25.0312 29.4764L20.1849 31.7927L20.2352 30.2618L19.8212 26.9393ZM15.1773 26.9404L14.7796 30.2368L14.8122 31.791L9.95463 29.4764L15.1773 26.9404Z" fill="#D5BFB2"/>
<path d="M13.6728 19.5249L15.0343 22.4025L10.3991 21.0368L13.6728 19.5249ZM21.327 19.5251L24.6162 21.0368L19.9659 22.4021L21.327 19.5251Z" fill="#233447"/>
<path d="M11.2145 23.7641L10.4653 29.9571L6.44943 23.8995L11.2145 23.7641ZM23.7858 23.7642L28.551 23.8995L24.5201 29.9574L23.7858 23.7642ZM27.6325 17.6532L24.1646 21.2077L21.4908 19.9789L20.2107 22.6854L19.3715 18.0312L27.6325 17.6532ZM7.36572 17.6532L15.6283 18.0312L14.789 22.6854L13.5086 19.9793L10.849 21.2078L7.36572 17.6532Z" fill="#CC6228"/>
<path d="M7.13207 16.9238L11.0556 20.9279L11.1915 24.8809L7.13207 16.9238ZM27.8719 16.9166L23.8051 24.8879L23.9582 20.9279L27.8719 16.9166ZM15.4365 17.1677L15.5944 18.1673L15.9846 20.6576L15.7337 28.306L14.5477 22.1618L14.5473 22.0983L15.4365 17.1677ZM19.5614 17.1538L20.453 22.0983L20.4526 22.1618L19.2635 28.3214L19.2165 26.7807L19.031 20.6122L19.5614 17.1538Z" fill="#E27525"/>
<path d="M24.307 20.7688L24.1742 24.2033L20.0352 27.4465L19.1985 26.852L20.1364 21.9934L24.307 20.7688ZM10.7074 20.7688L14.8635 21.9934L15.8014 26.852L14.9647 27.4465L10.8255 24.203L10.7074 20.7688Z" fill="#F5841F"/>
<path d="M9.16261 28.718L14.458 31.2414L14.4356 30.1638L14.8787 29.7726H20.1197L20.5788 30.1624L20.5449 31.2392L25.8068 28.7243L23.2463 30.8523L20.1503 32.9908H14.8362L11.7422 30.8435L9.16261 28.718Z" fill="#C0AC9D"/>
<path d="M19.442 26.6034L20.1906 27.1354L20.6294 30.6559L19.9944 30.1168H15.0075L14.3846 30.6668L14.809 27.1356L15.5579 26.6034H19.442Z" fill="#161616"/>
<path d="M33.1972 0.309387L35 5.74847L33.8741 11.2481L34.6758 11.87L33.591 12.7024L34.4064 13.3357L33.3267 14.3245L33.9895 14.8072L32.2305 16.8733L25.0158 14.7606L24.9534 14.7269L19.7544 10.3162L33.1972 0.309387ZM1.80277 0.309387L15.2458 10.3162L10.0466 14.7269L9.98416 14.7606L2.76951 16.8733L1.01049 14.8072L1.67275 14.3249L0.59377 13.3357L1.40752 12.7031L0.306387 11.8683L1.13832 11.246L0 5.74875L1.80277 0.309387Z" fill="#763E1A"/>
<path d="M24.663 14.2986L32.3073 16.537L34.7908 24.2351H28.2387L23.7243 24.2923L27.0074 17.8562L24.663 14.2986ZM10.337 14.2986L7.99217 17.8562L11.2757 24.2923L6.76334 24.2351H0.222992L2.69254 16.5371L10.337 14.2986ZM22.3377 4.55289L20.1995 10.3607L19.7457 18.2065L19.5721 20.6657L19.5583 26.9478H15.4416L15.4282 20.6775L15.254 18.2044L14.8001 10.3607L12.6622 4.55289H22.3377Z" fill="#F5841F"/>
</g>
<defs>
<clipPath id="clip0_1_64">
<rect width="35" height="33" fill="white"/>
</clipPath>
</defs>
</svg>
