<svg viewBox="0 0 154 35" fill="none" xmlns="http://www.w3.org/2000/svg">
<path d="M36.249 19.7104C36.249 19.159 36.0521 18.7293 35.6582 18.4214C35.2715 18.1134 34.5876 17.7948 33.6064 17.4653C32.6253 17.1359 31.8232 16.8172 31.2002 16.5093C29.1735 15.5138 28.1602 14.146 28.1602 12.4058C28.1602 11.5392 28.4108 10.7765 28.9121 10.1177C29.4206 9.45166 30.1367 8.93604 31.0605 8.5708C31.9844 8.1984 33.0228 8.01221 34.1758 8.01221C35.3001 8.01221 36.3063 8.21273 37.1943 8.61377C38.0895 9.01481 38.7842 9.58773 39.2783 10.3325C39.7725 11.0701 40.0195 11.9152 40.0195 12.8677H36.2598C36.2598 12.2303 36.0628 11.7362 35.6689 11.3853C35.2822 11.0343 34.7559 10.8589 34.0898 10.8589C33.4167 10.8589 32.8831 11.0093 32.4893 11.3101C32.1025 11.6037 31.9092 11.9797 31.9092 12.438C31.9092 12.839 32.124 13.2043 32.5537 13.5337C32.9834 13.856 33.7389 14.1925 34.8203 14.5435C35.9017 14.8872 36.7897 15.2596 37.4844 15.6606C39.1745 16.6346 40.0195 17.9774 40.0195 19.689C40.0195 21.0568 39.5039 22.131 38.4727 22.9116C37.4414 23.6922 36.027 24.0825 34.2295 24.0825C32.9619 24.0825 31.8125 23.8569 30.7812 23.4058C29.7572 22.9474 28.9837 22.3244 28.4609 21.5366C27.9453 20.7417 27.6875 19.8286 27.6875 18.7974H31.4688C31.4688 19.6353 31.6836 20.2547 32.1133 20.6558C32.5501 21.0496 33.2555 21.2466 34.2295 21.2466C34.8525 21.2466 35.3431 21.1141 35.7012 20.8491C36.0664 20.577 36.249 20.1974 36.249 19.7104ZM41.3301 17.9487C41.3301 16.7886 41.5557 15.7573 42.0068 14.855C42.458 13.9455 43.1061 13.2472 43.9512 12.7603C44.7962 12.2733 45.7881 12.0298 46.9268 12.0298C48.667 12.0298 50.0384 12.5705 51.041 13.6519C52.0436 14.7261 52.5449 16.1906 52.5449 18.0454V18.1743C52.5449 19.9862 52.04 21.4256 51.0303 22.4927C50.0277 23.5526 48.667 24.0825 46.9482 24.0825C45.2939 24.0825 43.9655 23.5884 42.9629 22.6001C41.9603 21.6047 41.4196 20.2583 41.3408 18.561L41.3301 17.9487ZM44.9502 18.1743C44.9502 19.2485 45.1185 20.0363 45.4551 20.5376C45.7917 21.0389 46.2894 21.2896 46.9482 21.2896C48.2373 21.2896 48.8962 20.2977 48.9248 18.314V17.9487C48.9248 15.8647 48.2588 14.8228 46.9268 14.8228C45.7165 14.8228 45.0612 15.7215 44.9609 17.519L44.9502 18.1743ZM61.0635 22.6108C60.2972 23.592 59.2624 24.0825 57.959 24.0825C56.6842 24.0825 55.7174 23.7137 55.0586 22.9761C54.4069 22.2313 54.0811 21.1642 54.0811 19.7749V12.2446H57.7012V19.7964C57.7012 20.7918 58.1846 21.2896 59.1514 21.2896C59.9821 21.2896 60.5729 20.9924 60.9238 20.3979V12.2446H64.5654V23.8677H61.1709L61.0635 22.6108ZM69.8828 12.2446L70.001 13.6089C70.8031 12.5562 71.9095 12.0298 73.3203 12.0298C74.5306 12.0298 75.4329 12.3914 76.0273 13.1147C76.6289 13.8381 76.9404 14.9266 76.9619 16.3804V23.8677H73.3311V16.5308C73.3311 15.9435 73.2129 15.5138 72.9766 15.2417C72.7402 14.9624 72.3105 14.8228 71.6875 14.8228C70.9785 14.8228 70.4521 15.1021 70.1084 15.6606V23.8677H66.4883V12.2446H69.8828ZM78.5195 17.9702C78.5195 16.1297 78.917 14.6795 79.7119 13.6196C80.5068 12.5597 81.6169 12.0298 83.042 12.0298C84.0804 12.0298 84.9541 12.438 85.6631 13.2544V7.36768H89.2939V23.8677H86.0391L85.8564 22.6216C85.1117 23.5955 84.1663 24.0825 83.0205 24.0825C81.6383 24.0825 80.5426 23.5526 79.7334 22.4927C78.9242 21.4328 78.5195 19.9253 78.5195 17.9702ZM82.1396 18.1958C82.1396 20.2583 82.7412 21.2896 83.9443 21.2896C84.7464 21.2896 85.3193 20.953 85.6631 20.2798V15.854C85.3337 15.1665 84.7679 14.8228 83.9658 14.8228C82.8486 14.8228 82.2435 15.7251 82.1504 17.5298L82.1396 18.1958ZM105.063 19.7104C105.063 19.159 104.867 18.7293 104.473 18.4214C104.086 18.1134 103.402 17.7948 102.421 17.4653C101.44 17.1359 100.638 16.8172 100.015 16.5093C97.988 15.5138 96.9746 14.146 96.9746 12.4058C96.9746 11.5392 97.2253 10.7765 97.7266 10.1177C98.235 9.45166 98.9512 8.93604 99.875 8.5708C100.799 8.1984 101.837 8.01221 102.99 8.01221C104.115 8.01221 105.121 8.21273 106.009 8.61377C106.904 9.01481 107.599 9.58773 108.093 10.3325C108.587 11.0701 108.834 11.9152 108.834 12.8677H105.074C105.074 12.2303 104.877 11.7362 104.483 11.3853C104.097 11.0343 103.57 10.8589 102.904 10.8589C102.231 10.8589 101.698 11.0093 101.304 11.3101C100.917 11.6037 100.724 11.9797 100.724 12.438C100.724 12.839 100.938 13.2043 101.368 13.5337C101.798 13.856 102.553 14.1925 103.635 14.5435C104.716 14.8872 105.604 15.2596 106.299 15.6606C107.989 16.6346 108.834 17.9774 108.834 19.689C108.834 21.0568 108.318 22.131 107.287 22.9116C106.256 23.6922 104.841 24.0825 103.044 24.0825C101.776 24.0825 100.627 23.8569 99.5957 23.4058C98.5716 22.9474 97.7982 22.3244 97.2754 21.5366C96.7598 20.7417 96.502 19.8286 96.502 18.7974H100.283C100.283 19.6353 100.498 20.2547 100.928 20.6558C101.365 21.0496 102.07 21.2466 103.044 21.2466C103.667 21.2466 104.158 21.1141 104.516 20.8491C104.881 20.577 105.063 20.1974 105.063 19.7104ZM121.392 18.1421C121.392 19.9468 120.983 21.3898 120.167 22.4712C119.358 23.5454 118.262 24.0825 116.88 24.0825C115.813 24.0825 114.936 23.6922 114.248 22.9116V28.3364H110.628V12.2446H114.012L114.119 13.3188C114.814 12.4595 115.727 12.0298 116.858 12.0298C118.291 12.0298 119.404 12.5597 120.199 13.6196C120.994 14.6724 121.392 16.1226 121.392 17.9702V18.1421ZM117.771 17.9165C117.771 15.854 117.17 14.8228 115.967 14.8228C115.107 14.8228 114.535 15.1307 114.248 15.7466V20.3228C114.563 20.9673 115.143 21.2896 115.988 21.2896C117.141 21.2896 117.736 20.2941 117.771 18.3032V17.9165ZM126.816 23.8677H123.186V7.36768H126.816V23.8677ZM132.875 23.8677H129.244V12.2446H132.875V23.8677ZM129.029 9.24756C129.029 8.73193 129.215 8.30941 129.588 7.97998C129.96 7.65055 130.444 7.48584 131.038 7.48584C131.632 7.48584 132.116 7.65055 132.488 7.97998C132.861 8.30941 133.047 8.73193 133.047 9.24756C133.047 9.76318 132.861 10.1857 132.488 10.5151C132.116 10.8446 131.632 11.0093 131.038 11.0093C130.444 11.0093 129.96 10.8446 129.588 10.5151C129.215 10.1857 129.029 9.76318 129.029 9.24756ZM139.331 9.35498V12.2446H141.243V14.7583H139.331V20.0757C139.331 20.5125 139.41 20.8169 139.567 20.9888C139.725 21.1606 140.036 21.2466 140.502 21.2466C140.86 21.2466 141.161 21.2251 141.404 21.1821V23.771C140.753 23.9787 140.072 24.0825 139.363 24.0825C138.117 24.0825 137.197 23.7889 136.603 23.2017C136.008 22.6144 135.711 21.7228 135.711 20.5269V14.7583H134.229V12.2446H135.711V9.35498H139.331ZM148.763 20.6021C148.763 20.2941 148.602 20.047 148.279 19.8608C147.957 19.6746 147.345 19.4813 146.442 19.2808C145.54 19.0802 144.795 18.8188 144.208 18.4966C143.621 18.1672 143.173 17.7697 142.865 17.3042C142.557 16.8387 142.403 16.3052 142.403 15.7036C142.403 14.6366 142.844 13.7593 143.725 13.0718C144.605 12.3771 145.758 12.0298 147.184 12.0298C148.716 12.0298 149.948 12.3771 150.879 13.0718C151.81 13.7664 152.275 14.6795 152.275 15.811H148.645C148.645 14.88 148.154 14.4146 147.173 14.4146C146.793 14.4146 146.475 14.522 146.217 14.7368C145.959 14.9445 145.83 15.2059 145.83 15.521C145.83 15.8433 145.988 16.1047 146.303 16.3052C146.618 16.5057 147.119 16.6704 147.807 16.7993C148.501 16.9282 149.11 17.0822 149.633 17.2612C151.38 17.8628 152.254 18.9406 152.254 20.4946C152.254 21.5545 151.781 22.4175 150.836 23.0835C149.898 23.7495 148.68 24.0825 147.184 24.0825C146.188 24.0825 145.3 23.9035 144.52 23.5454C143.739 23.1873 143.13 22.7004 142.693 22.0845C142.257 21.4686 142.038 20.8205 142.038 20.1401H145.422C145.436 20.6772 145.615 21.0711 145.959 21.3218C146.303 21.5653 146.743 21.687 147.28 21.687C147.774 21.687 148.143 21.5868 148.387 21.3862C148.637 21.1857 148.763 20.9243 148.763 20.6021Z" fill="black"/>
<line x1="10.5" y1="30.4189" x2="10.5" y2="0.867676" stroke="black" stroke-width="3"/>
<rect x="2" y="7.68701" width="17" height="17.0483" stroke="black" stroke-width="3"/>
</svg>
